<svg xmlns="http://www.w3.org/2000/svg" viewBox="0 0 125 34"><path d="M122.6 22.4c.2 0 .3-.2.3-.3 0-.1 0-.2-.1-.2-.1-.1-.2-.1-.3-.1h-.5v1.1h.2v-.4h.3l.3.4h.2l-.4-.5zm-.4-.1v-.4h.3c.1 0 .2.1.2.2s-.1.2-.2.2h-.3zm.2-1c-.6 0-1.1.5-1.1 1.1 0 .6.5 1.1 1.1 1.1.6 0 1.1-.5 1.1-1.1 0-.7-.5-1.1-1.1-1.1zm.9 1c0 .5-.4.9-.9.9s-.9-.4-.9-.9.4-.9.9-.9.9.4.9.9zM8.8 16.9l-3.4 5.9L2 16.9h-.2L1.5 25h1l.1-5.5 2.8 4.7h.2l2.7-4.7.1 5.5h1L9 16.9h-.2zm5.9 0l-3.6 8.2h1l.9-2.2h3.5l.9 2.2h1l-3.6-8.2h-.1zm-1.3 5.2l1.4-3.2 1.4 3.2h-2.8zm11.9-2.7c0-1.4-1-2.4-3.1-2.4-.7 0-1.2.1-1.8.1V25h1v-3h1.3l2.1 3.1H26l-2.3-3.3c1-.4 1.6-1.3 1.6-2.4zm-3.1 1.8h-.9V18c.3-.1.7-.1 1-.1 1.3 0 1.9.7 1.9 1.6.1 1-.5 1.6-2 1.7zm5.7 3.9h1v-8h-1v8zm9-2.2l-5-6-.2.1v8.1h1v-5.9l5.1 6.1h.1v-8.1h-1v5.7zm6.4-6l-3.6 8.2h1l.9-2.2h3.5l.9 2.2h1l-3.6-8.2h-.1zM42 22.1l1.4-3.2 1.4 3.2H42zm13.9-1.2c1-.4 1.3-1 1.3-1.8 0-1.1-.9-2.1-2.8-2.1-.7 0-1.3.1-1.8.1V25c.6.1 1.3.1 1.9.1 1.9 0 2.9-1.1 2.9-2.3 0-.7-.4-1.5-1.5-1.9zm-2.5-3c.3 0 .7-.1 1-.1 1.2 0 1.7.5 1.7 1.4 0 .7-.5 1.4-1.8 1.4h-.9v-2.7zm1.2 6.4c-.3 0-.8 0-1.1-.1v-2.8h.9c1.4 0 2 .7 2 1.4 0 .9-.6 1.5-1.8 1.5zm7.7-7.4l-3.6 8.2h1l.9-2.2h3.5l.9 2.2h1l-3.6-8.2h-.1zM61 22.1l1.4-3.2 1.4 3.2H61zm11.1-5l-2.2 3.6-2.2-3.6h-1.1l2.8 4.5v3.6h1v-3.5l2.8-4.5h-1.1zm-1.6 16.6c-.5 0-.8-.1-1.2-.4l.2-.4c.3.2.7.4 1 .4.5 0 .8-.4.8-.7 0-.4-.1-.6-.8-.9-.7-.3-1-.6-1-1.1 0-.6.5-1.1 1.3-1.1.4 0 .7.1.9.3l-.2.4c-.2-.1-.5-.3-.8-.3-.5 0-.8.3-.8.7 0 .3.2.5.7.8.9.4 1.1.7 1.1 1.2.1.6-.4 1.1-1.2 1.1zm4.6 0v-4.2h.5v4.2h-.5zm7.1.1l-2.7-3.2v3.2H79v-4.2h.1l2.7 3.2v-3.1h.5l-.1 4.1zm7.1-2.2v1.6c-.4.3-.9.5-1.5.5-1.2 0-2.2-.8-2.2-2.2 0-1.3 1.1-2.2 2.2-2.2.7 0 1.1.2 1.6.5l-.4.5c-.4-.3-.9-.5-1.3-.5-1.1 0-1.7.8-1.7 1.7 0 1 .8 1.7 1.7 1.7.4 0 .7-.1 1.1-.3v-1h-1.1v-.4h1.6zm6.2 2.1l-.5-1.2h-1.9l-.5 1.2h-.5l1.9-4.2h.1l1.9 4.2h-.5zm-1.4-3.4l-.8 1.8h1.5l-.7-1.8zm5.8 1.9h-.5v1.5H99v-4.1c.3 0 .6-.1 1-.1 1.1 0 1.6.6 1.6 1.3 0 .8-.6 1.4-1.7 1.4zm.1-2.3h-.6v1.9h.5c.8 0 1.1-.4 1.1-1 .1-.5-.3-.9-1-.9zm6.6 3.8c-1.1 0-2.1-.9-2.1-2.2 0-1.3 1-2.2 2.1-2.2s2.1.9 2.1 2.2c0 1.3-1 2.2-2.1 2.2zm0-3.9c-.9 0-1.6.8-1.6 1.7 0 1 .7 1.7 1.6 1.7.9 0 1.6-.8 1.6-1.7 0-.9-.7-1.7-1.6-1.7zm7.7 3.9l-1.1-1.6h-.8v1.6h-.4v-4.1c.3 0 .6-.1 1-.1 1.1 0 1.6.5 1.6 1.3 0 .6-.3 1-.9 1.2l1.2 1.7h-.6zm-1.3-3.8h-.6v1.7h.5c.8 0 1.1-.4 1.1-.9.1-.4-.3-.8-1-.8zm4.9 3.8v-4.2h2.4v.4h-2v1.4h1.8v.4h-1.8v1.5h2v.4h-2.4z" fill="#231f20"/><path d="M117.3 19.6c-1.7.2-2.9 1.1-3 2-.1.9 1.7 1.1 2.8 1.3 1.7.3 2.1 1 1.1 1.4-1 .4-2.8-.6-3.4-.8-.5-.2-1.9 1.5-1.9 1.5h.4c.4-.3.5-.3 1.6-.1 1.1.2 2.6.3 3.7-.3 1.1-.5 1.7-1.2 1.6-1.9-.2-.9-1.6-1.2-3.2-1.4-1.3-.2-1.5-.8-.8-1.1.7-.3 1.9-.1 2.3.2.3.2 0 .4 0 .4l.3.1 1.4-.6c.6-.1-1.1-.9-2.9-.7m-6 1.5c.3.2.4.4.4.7v1.5c0 .4-.2.6-.7.5-.2 0-.7-.2-1.1-.3-.3-.1-.5-.2-.6-.4-.1-.2-.1-.5-.1-1s0-1 .1-1.1c.2-.3.6-.2 1.2-.1.4 0 .7.1.8.2m.5-1.4s-1.7-.3-3.1.6c-1.4.9-1.4 1.9-1.3 2.5.1.6.7 2.1 2.2 2.2 1.1.1 2.1-.6 2.7-1.2.9-.9 1.7-3 1.6-4.4-.1-1.4-.7-2.9-4.5-3.5-3.8-.6-10.9-.3-16.5 1.3l.4.2s5-1 10.7-.7c5.5.3 7.7 1.1 7.8 3m-12.1 1.9V25s.7.1 1-.4c.3-.5 1.3-2 2-2.7.7-.7 1.1-.8 1.3-.5.1.4 0 1.8.1 2.6s.4 1.1 1 1c.8-.1 1.8-1.5 1.8-1.5V23s-.5.6-.8.5c-.4-.1-.1-1.6-.1-2.7s-.6-1.4-1.9-.7c-1.3.7-2.4 2-2.4 2v-1.6c-.1-.6-.3-1.1-.9-.9-.5.2-1.8 1-1.8 1v.5c.4-.3.7-.2.7.5m-4.8-1.1c.7.2 1.2.5.9.9-.3.5-1.2 1.6-1.8 1.8-.6.2-1.1.3-1-1 .1-1.3.6-2 1.9-1.7M97 20c-.5.1-1.1-.2-1.8-.3-.7-.1-1.8.2-2.9 1.4-1.1 1.1-1.2 2.6-.8 3.5.3.8 1.2.7 2.3 0 1.1-.8 2.1-2.2 2.1-2.2v1.1c0 .5.1 1 .2 1.2.2.3.6.6 1.4.3.8-.3 1.6-1.4 1.6-1.4v-.5s0 .1-.4.3c-.5.3-.9.1-.9-.5v-3.1c-.1 0-.3.1-.8.2m-5.6-2.5s.1.2-.1.3c-.2.1-3 1.1-3 1.1l-.5-.3s.9-.2.4-.8c-.5-.6-2.6-1.1-4.9-1-2.3.2-3.3 1.1-2.5 1.8.8.7 1.9.7 4.5.9 2.6.3 4.9.7 5.3 2 .3 1-.7 2.6-3.7 3.3-2.8.7-5.1.5-7.4-.1-2.2-.5-2.4-.4-3.1.2h-.6s1.6-1.6 3.4-2.5c.4-.2 1 .2 1.8.6.9.5 4 1.5 6.3 1 2-.5 1-1.7 0-2-1.6-.5-5-.6-7.5-1.2s-2-2.2-.7-3.1c1.3-.9 3.6-1.6 6.7-1.7 3.2 0 5.1.8 5.6 1.5M122.9.3C121.4.2 98.8.2 98.7.2c0 0-.1 0 0 .1.1.3.7 1 2.3 1h1.6c.1 0 .1 0 .1.1.6 1.1 1.5 2.8 2 4.9.7 3.1.5 5.4.5 5.7h3.5s.1-5.9-1.1-10.8h1.7s.6 3.2.6 10.8h3.6c.3-7.3.8-10.8.8-10.8h1.7c-1.1 4.5-1.2 10.8-1.2 10.8h3.5c0-.4-.2-2.8.5-5.7.5-2.1 1.2-3.7 1.9-4.8.1-.1.2-.3.3-.3h.4c.8.1 1.4-.6 1.5-.9z" fill="#b3965a"/></svg>